<?xml version="1.0" encoding="iso-8859-1"?>
<!-- Generator: Adobe Illustrator 19.0.0, SVG Export Plug-In . SVG Version: 6.00 Build 0)  -->
<svg xmlns="http://www.w3.org/2000/svg" xmlns:xlink="http://www.w3.org/1999/xlink" version="1.1" id="Layer_1" x="0px" y="0px" viewBox="0 0 503.322 503.322" style="enable-background:new 0 0 503.322 503.322;" xml:space="preserve" width="24px" height="24px">
<g>
	<g>
		<path d="M116.285,60.746H45.993l-20.827,95.458h73.763c57.275,0,73.763-28.637,73.763-53.803    C173.559,84.176,162.278,60.746,116.285,60.746z" fill="#FFFFFF"/>
	</g>
</g>
<g>
	<g>
		<path d="M238.644,347.119h-71.159l-19.959,95.458h73.763c57.275,0,73.763-28.637,73.763-53.803    C295.051,370.549,284.637,347.119,238.644,347.119z" fill="#FFFFFF"/>
	</g>
</g>
<g>
	<g>
		<path d="M91.119,199.593H19.959L0,295.051h73.763c57.275,0,73.763-28.637,73.763-53.803    C147.525,223.024,137.112,199.593,91.119,199.593z" fill="#FFFFFF"/>
	</g>
</g>
<g>
	<g>
		<path d="M420.881,295.051h-71.159l-19.959,86.78h73.763c57.275,0,73.763-24.298,73.763-49.464    C477.288,314.142,466.875,295.051,420.881,295.051z" fill="#FFFFFF"/>
	</g>
</g>
<g>
	<g>
		<path d="M446.915,147.525h-71.159l-19.959,86.78h73.763c57.275,0,73.763-24.298,73.763-49.464    C503.322,166.617,492.908,147.525,446.915,147.525z" fill="#FFFFFF"/>
	</g>
</g>
<g>
	<g>
		<path d="M265.546,199.593h-71.159l-19.959,95.458h73.763c57.275,0,73.763-28.637,73.763-53.803    C322.82,223.024,311.539,199.593,265.546,199.593z" fill="#FFFFFF"/>
	</g>
</g>
<g>
	<g>
		<path d="M291.58,60.746H220.42l-19.959,95.458h73.763c57.275,0,73.763-28.637,73.763-53.803    C347.986,84.176,337.573,60.746,291.58,60.746z" fill="#FFFFFF"/>
	</g>
</g>
<g>
</g>
<g>
</g>
<g>
</g>
<g>
</g>
<g>
</g>
<g>
</g>
<g>
</g>
<g>
</g>
<g>
</g>
<g>
</g>
<g>
</g>
<g>
</g>
<g>
</g>
<g>
</g>
<g>
</g>
</svg>
